<?xml version="1.0" standalone="no"?>
<!DOCTYPE svg PUBLIC "-//W3C//DTD SVG 20010904//EN"
 "http://www.w3.org/TR/2001/REC-SVG-20010904/DTD/svg10.dtd">
<svg version="1.0" xmlns="http://www.w3.org/2000/svg"
 width="512.000000pt" height="512.000000pt" viewBox="0 0 512.000000 512.000000"
 preserveAspectRatio="xMidYMid meet">
<metadata>
Created by potrace 1.11, written by Peter Selinger 2001-2013
</metadata>
<g transform="translate(0.000000,512.000000) scale(0.100000,-0.100000)"
fill="#000000" stroke="none">
<path d="M3455 4851 c-57 -26 -81 -58 -96 -123 -62 -286 385 -683 629 -559 54
28 84 81 88 154 5 121 -57 249 -180 372 -148 147 -325 210 -441 156z"/>
<path d="M575 4303 c-127 -28 -227 -86 -328 -189 -109 -110 -184 -240 -223
-384 -22 -80 -25 -289 -5 -370 66 -279 242 -518 513 -699 42 -28 82 -51 88
-51 8 0 10 -9 5 -27 -20 -79 -55 -269 -62 -334 -14 -140 -8 -412 13 -512 2
-12 7 -38 10 -57 10 -67 66 -244 103 -330 46 -106 97 -199 169 -304 200 -294
520 -560 834 -692 73 -31 212 -76 272 -88 172 -35 229 -41 401 -41 168 0 246
7 421 39 92 17 341 89 419 121 17 7 77 32 135 56 306 126 663 338 965 573 120
93 168 135 181 160 12 20 12 76 0 114 -5 16 -1 21 21 27 43 10 146 61 173 86
14 11 34 29 46 38 44 35 100 122 165 256 112 233 184 478 213 735 15 134 14
503 -2 570 -6 25 -13 63 -16 85 -8 49 -31 132 -56 203 -116 314 -370 530 -600
509 -71 -6 -111 -26 -147 -74 -25 -33 -28 -44 -28 -114 0 -76 2 -81 62 -201
71 -139 90 -184 104 -246 68 -306 -21 -608 -242 -816 -38 -37 -73 -66 -77 -66
-5 0 -49 53 -99 118 -217 279 -378 459 -663 737 -131 128 -194 187 -316 295
-231 205 -565 450 -794 582 -314 180 -565 248 -687 184 -18 -9 -67 -60 -110
-113 -43 -54 -86 -108 -97 -120 l-19 -22 -31 38 c-121 144 -303 268 -458 311
-68 19 -198 26 -253 13z m235 -485 c59 -36 147 -116 201 -184 l51 -64 -25 -42
c-13 -24 -41 -72 -62 -108 -48 -84 -185 -356 -185 -369 0 -41 -66 3 -175 115
-166 171 -212 362 -130 541 63 138 201 185 325 111z"/>
</g>
</svg>
