<svg id="Capa_1" enable-background="new 0 0 512 512"  viewBox="0 0 512 512"  xmlns="http://www.w3.org/2000/svg"><g><path d="m439.845 379.145c-2.499 1.473-5.129 2.685-7.845 3.645v129.21c10.622-2.979 26.925-8.908 42.031-21.326 25.195-20.71 37.969-51.091 37.969-90.298v-94.291c-5.69 9.296-12.159 18.277-19.399 26.882-23.974 28.492-48.153 43.466-52.756 46.178z"/><path d="m357 385.376c0 9.362-2.158 18.228-5.999 26.132l50.999 17.761v-46.466l-45-15.672z"/><path d="m237 325.34-237-82.538v46.466l237 82.538z"/><path d="m297 445.376c-26.327 0-48.732-17.052-56.792-40.685l-240.208-83.656v39.34c0 6.383 4.039 12.066 10.066 14.165l391.934 136.495v-49.999l-72.516-25.254c-9.37 6.059-20.519 9.594-32.484 9.594z"/><path d="m172 125c0 35.841 29.159 65 65 65s65-29.159 65-65c0-31.083-21.936-57.125-51.136-63.496-4.197-24.817-19.849-46.263-42.934-57.806l-4.223-2.111c-7.406-3.704-16.418-.701-20.124 6.708-3.705 7.409-.702 16.42 6.708 20.124l4.223 2.111c13.01 6.506 22.232 18.058 25.821 31.645-27.791 7.378-48.335 32.743-48.335 62.825z"/><path d="m512 200.376c0-4.142-.993-102.014-87.385-152.923-3.804-2.242-8.402-2.693-12.57-1.235-12.606 4.412-47.657 16.62-92.299 32.159 7.796 13.782 12.254 29.691 12.254 46.623 0 52.383-42.617 95-95 95-47.337 0-86.695-34.803-93.839-80.164-61.35 21.355-113.536 39.529-133.116 46.382-6.021 2.107-10.05 7.791-10.045 14.17.005 6.378 4.043 12.056 10.066 14.153l256.934 89.479v81.355c0 16.569 13.431 30 30 30s30-13.431 30-30v-60.46l85.066 29.625c1.604.56 3.271.835 4.933.835 2.649 0 5.283-.702 7.616-2.077 3.569-2.102 87.385-52.648 87.385-152.922zm-160 10c-8.284 0-15-6.716-15-15s6.716-15 15-15 15 6.716 15 15-6.716 15-15 15zm30 70c-8.284 0-15-6.716-15-15s6.716-15 15-15 15 6.716 15 15-6.716 15-15 15zm30-130c-8.284 0-15-6.716-15-15s6.716-15 15-15 15 6.716 15 15-6.716 15-15 15zm20 70c-8.284 0-15-6.716-15-15s6.716-15 15-15 15 6.716 15 15-6.716 15-15 15z"/></g></svg>