<svg  viewBox="0 0 61 47"  xmlns="http://www.w3.org/2000/svg"><g id="Page-1" fill="none" fill-rule="evenodd"><g id="030---Croissant" fill="rgb(0,0,0)" fill-rule="nonzero"><path id="Shape" d="m55.635 13.445c.4673369-1.0070791.1219124-2.2045506-.81-2.808-1.7455193-1.08751569-3.6731362-1.85077066-5.69-2.253-.6283026-1.18602254-1.5756092-2.1728147-2.735-2.849-3.451-2.181-9.4-4.285-18.247-2.16-3.142-3.18-7.114-3.669-11.171-2.12-4.028 1.545-8.611 5.556-11.582 8.688-1.895 1.986-3.1 3.336-2.463 5.932-1.04177621 2.210386-1.72144703 4.5738712-2.013 7-.80091502 6.2807961 1.54718983 12.5525108 6.276 16.763 2.168 4.69 7.432 6.409 12.612 6.409 1.0056099-.0153291 2.0094025-.0907972 3.006-.226.3219725.1509591.6631649.2569508 1.014.315 3.4.513 10.6-.324 11.249-3.775.329-1.759-1.016-3.634-4.09-5.708.1142498-1.754911-.4458982-3.4872206-1.566-4.843.6502787-.4696585 1.1443298-1.12398 1.418-1.878 1.6041169-.2263908 2.9793114-1.2612803 3.641-2.74 3.068.862 5.506.516 6.886-2.357 2.682.953 5.94.409 8.562-.713 2.6834247 1.5435956 5.9071363 1.8383537 8.826.807 4.782-1.91.997-8.349-3.123-11.484zm-52.735 9.78c.26086894-2.2327646.87768159-4.4093334 1.827-6.447 3.64243682-1.8276025 7.8761071-2.0771098 11.708-.69 7.492 2.84 11.83 11.551 12.541 13.074-.1785534.5476036-.5604874 1.0057811-1.067 1.28-2.3724506-1.455646-4.9246492-2.5955966-7.592-3.391-8.2-2.732-14.24 2.228-14.07 8.55-2.72175998-3.5137615-3.92674708-7.9693697-3.347-12.376zm16.426 20.815c-2.44-.04-8.326-.651-10.393-5.405-2.733-6.294 2.642-12.391 10.751-9.686 2.2482254.6926743 4.4203533 1.6117159 6.483 2.743 1.985 1.219 2.539 2.272 2.741 3.735-.7818656-.328153-1.6494928-.3920576-2.471-.182-2.7469866.783102-4.9093488 2.9059294-5.743 5.638-.3563628 1.027284-.2731504 2.1560776.23 3.12-.5315555.0422093-1.0650606.054562-1.598.037zm13.792-2.047c-.122.652-1.311 1.526-4.282 2.021-1.549643.292-3.1353042.3409194-4.7.145-.577677-.0943686-1.0842027-.4390101-1.3840492-.941711s-.36241-1.1121529-.1709508-1.665289c.6106157-2.1159306 2.2662349-3.7692834 4.383-4.377.5120803-.1242492 1.0526126-.0374037 1.5.241 4.601 2.73 4.725 4.194 4.654 4.577zm-2.5-14.043c-3.682-7.639-10.518-14.768-19.075-14.768-2.33088336.0238539-4.63504515.4992889-6.785 1.4.017-1 .742-1.842 1.845-3 7.119-7.464 15.863-13.576 21.565-5.028 5.232 7.846 7.472 20.53 2.449 21.396zm4.519-2.645c1.294-5.949-1.865-14.99-5.553-20.209 7.639-1.6 12.752.233 15.756 2.131.6773767.40658751 1.2660512.94527065 1.731 1.584-3.3326733 1.893314-5.5782374 5.2464674-6.06 9.049-.2010017 1.8074664-.5730012 3.5917914-1.111 5.329-.748 2.123-1.819 2.942-4.764 2.116zm6.926-2.344c.4132951-1.5845579.7232803-3.1942765.928-4.819.4250287-3.3781901 2.5055951-6.3224091 5.548-7.851 1.8375573.3481325 3.5954468 1.0311536 5.186 2.015.165.109.184.349-.077.514-1.6541094 1.2008057-2.901813 2.8783669-3.576 4.808-.7273871 1.5134098-1.1762198 3.1454673-1.325 4.818-2.1062686.9215358-4.4624357 1.1030505-6.685.515zm15.956.111c-2.794 1.119-5.647.069-7.265-.776.1958937-1.3589363.5922032-2.681316 1.176-3.924.4708695-1.3321984 1.2604863-2.5289828 2.3-3.486 2.356 1.683 4.92 5.063 4.76 7-.0315261.5646771-.4245124 1.0441851-.972 1.186z"/><path id="Shape" d="m23.2 4.746c-1.5719997-.49879704-3.271454-.41140871-4.784.246-1.8455383.80125832-3.5691115 1.85829344-5.12 3.14-.2.156-.4.315-.6.477-.3333333.26666667-.6666667.54433333-1 .833-.3904054.36663158-.4226511.9757549-.0731366 1.3815562s.9566892.4641953 1.3771366.1324438c.314-.2713333.6293333-.535.946-.791.189-.152.379-.3.572-.452 1.3970364-1.15901424 2.9477451-2.11912097 4.608-2.853 1.0540254-.47628102 2.242776-.56344426 3.355-.246.515834.1974418 1.0940582-.06066604 1.2915-.5765s-.060666-1.0940582-.5765-1.2915z"/><path id="Shape" d="m52.5 27c-1.9329966 0-3.5 1.5670034-3.5 3.5s1.5670034 3.5 3.5 3.5 3.5-1.5670034 3.5-3.5-1.5670034-3.5-3.5-3.5zm0 5c-.8284271 0-1.5-.6715729-1.5-1.5s.6715729-1.5 1.5-1.5 1.5.6715729 1.5 1.5-.6715729 1.5-1.5 1.5z"/><circle id="Oval" cx="46" cy="29" r="1"/><circle id="Oval" cx="42" cy="30" r="1"/></g></g></svg>