<svg id="Capa_1" enable-background="new 0 0 510 510"  viewBox="0 0 510 510"  xmlns="http://www.w3.org/2000/svg"><g><path d="m450 337.5h29.473c16.833 0 30.527-13.694 30.527-30.527v-89.473c0-16.833-13.694-30.527-30.527-30.527h-29.473v-44.473h-240v90h-35c-20.46 0-36.397 14.615-39.458 35h-31.399c-18.894 0-34.704 13.457-38.351 31.289-37.354 6.727-65.792 39.449-65.792 78.711v19.993 15.007 60h510v-90h-71.249c7.1-10.648 11.249-23.424 11.249-37.154zm29.473-120.527c.291 0 .527.236.527.527v89.473c0 .291-.236.527-.527.527h-29.473v-90.527zm-59.473-44.473v14.473 150.527 7.846c0 18.04-12.925 33.111-30 36.456v-4.302c0-39.262-28.438-71.984-65.792-78.711-3.647-17.832-19.457-31.289-38.35-31.289h-33.385c-1.197-9.543-5.763-18.049-12.473-24.286v-70.714zm-125 210h-40v-85h30.857c5.041 0 9.143 4.102 9.143 9.143zm30-52.702c20.266 6.386 35 25.355 35 47.702v5h-35zm-150-67.298h37.791c5.517 0 10.006 4.488 10.006 10.006v109.994h-57.797v-107.786c0-5.635 2.619-12.214 10-12.214zm-70.857 35h30.857v85h-40v-75.857c0-5.041 4.102-9.143 9.143-9.143zm-74.143 80c0-22.347 14.735-41.316 35-47.702v52.702h-35zm450 65h-450v-30h450z"/><path d="m241 67.5h30v45h-30z"/><path d="m391 67.5h30v45h-30z"/><path d="m316 37.5h30v75h-30z"/></g></svg>