<svg id="Layer_1" enable-background="new 0 0 512 512" viewBox="0 0 512 512" xmlns="http://www.w3.org/2000/svg"><g><path d="m404.345 154.512h-10.819c-6.374-20.064-25.175-34.645-47.322-34.645-.357 0-.708.02-1.063.027.518-7.813-1.397-15.7-5.709-22.611-.684-1.095-1.429-2.134-2.206-3.141l46.058-94.142h-330.22l46.058 94.143c-.776 1.007-1.522 2.045-2.205 3.141-6.997 11.212-7.707 24.993-1.899 36.865l17.55 35.87-15.353 36.992c-4.883 11.768-3.575 25.118 3.5 35.714.937 1.403 1.962 2.726 3.057 3.974l-65.047 156.74c-10.072 24.271-7.374 51.808 7.218 73.661s38.991 34.9 65.268 34.9h213.925c26.277 0 50.677-13.047 65.269-34.901s17.29-49.391 7.218-73.661l-65.047-156.739c1.095-1.249 2.12-2.571 3.057-3.974 4.752-7.117 6.889-15.476 6.309-23.764 1.406.12 2.825.195 4.262.195 12.718 0 24.33-4.812 33.124-12.705 3.667 13.215 5.576 26.927 5.576 40.613v47.128h30v-47.128c0-21.254-3.831-42.563-11.141-62.552h.584c24.781 0 44.942 20.161 44.942 44.942v64.737h30v-64.737c-.001-41.323-33.621-74.942-74.944-74.942zm-281.977-41.347c.71-1.139 2.799-3.788 6.829-3.788h177.953c4.031 0 6.119 2.649 6.83 3.788.711 1.14 2.173 4.18.402 7.8l-16.413 33.547h-159.59l-16.412-33.547c-1.772-3.62-.31-6.66.401-7.8zm183.081 146.436 39.932 96.222h-254.414l39.932-96.222c.486.019 174.064.019 174.55 0zm5.234-33.535c-.719 1.076-2.81 3.58-6.695 3.58h-171.628c-3.885 0-5.977-2.504-6.695-3.58-.719-1.077-2.229-3.968-.74-7.556l14.11-33.999h158.28l14.11 33.999c1.488 3.589-.023 6.48-.742 7.556zm24.526-196.066-24.258 49.582c-1.255-.124-184.299-.124-185.555 0l-24.257-49.582zm30.246 430.44c-9.148 13.701-23.844 21.56-40.319 21.56h-213.925c-16.475 0-31.17-7.858-40.318-21.56-9.148-13.701-10.774-30.287-4.459-45.503l12.082-29.114h279.315l12.082 29.114c6.315 15.216 4.69 31.802-4.458 45.503zm-19.251-271.284c-10.832 0-19.644-8.813-19.644-19.645s8.813-19.645 19.644-19.645 19.644 8.813 19.644 19.645-8.813 19.645-19.644 19.645z"/></g></svg>