<svg id="Layer_1" enable-background="new 0 0 512 512" viewBox="0 0 512 512" xmlns="http://www.w3.org/2000/svg"><g><path d="m437.811 180.468h-41.053v-29.939h-30.321c3.281-6.86 5.123-14.534 5.123-22.632 0-29.021-23.61-52.632-52.632-52.632h-43.282c-12.341 0-22.714-9.245-24.128-21.505l-6.203-53.76h-42.034c-25.39 0-48.751 11.104-64.096 30.465-10.275 12.966-16.13 28.588-17.115 45.438-25.153 3.939-44.458 25.753-44.458 51.994 0 8.098 1.842 15.772 5.123 22.632h-30.32v159.395c0 40.133 14.081 78.864 39.734 109.595h-92.149v52.124l37.411 40.357h374.351l37.411-40.358v-52.124h-92.147c11.004-13.182 19.873-27.837 26.419-43.444l93.661-58.488c21.849-13.644 34.894-37.169 34.894-62.929 0-40.908-33.281-74.189-74.189-74.189zm-330.198-52.572c0-12.479 10.152-22.632 22.632-22.632h47.104v-30h-25.152c.977-9.798 4.49-18.582 10.501-26.166 9.477-11.958 24.649-19.098 40.583-19.098h15.296l3.138 27.197c3.161 27.403 26.347 48.067 53.931 48.067h43.282c12.479 0 22.632 10.152 22.632 22.632s-10.152 22.632-22.632 22.632h-188.683c-12.479 0-22.632-10.152-22.632-22.632zm259.145 52.632v38.444h-284.343v-38.444zm52.415 279.348-20.509 22.124h-348.155l-20.509-22.124v-10.358h389.173zm-287.121-40.358-14.39-16.32c-22.729-25.78-35.247-58.906-35.247-93.274v-60.95h284.343v60.95c0 34.369-12.518 67.494-35.246 93.274l-14.391 16.32zm329.164-127.378-66.077 41.263c1.071-7.739 1.619-15.582 1.619-23.48v-99.455h41.053c24.366 0 44.189 19.823 44.189 44.189 0 15.344-7.77 29.356-20.784 37.483z"/></g></svg>