<svg id="Capa_1" enable-background="new 0 0 510.008 510.008"  viewBox="0 0 510.008 510.008"  xmlns="http://www.w3.org/2000/svg"><g id="XMLID_348_"><path id="XMLID_1325_" d="m473.014 30v-30h-148.01l-11.538 80.769h-88.704c-7.208-44.993-46.292-79.481-93.286-79.481-52.098 0-94.481 42.384-94.481 94.481 0 49.781 38.701 90.69 87.595 94.229l27.745 320.01h213.28l37.216-429.239h-59.06l7.252-50.769zm-406.02 65.769c0-35.555 28.927-64.481 64.481-64.481 30.39 0 55.92 21.139 62.701 49.481h-79.058l6.83 78.773c-31.052-4.619-54.954-31.455-54.954-63.773zm112.853 384.239-25.439-293.399c10.281-1.883 28.087-3.927 54.152-2.862l31.547 74.289 88.27-37.485-10.556-24.858c2.025.067 4.024.109 5.975.109 15.753 0 29.057-2.076 39.345-4.559l-25.037 288.765zm62.116-294.355 33.043-14.032 14.031 33.043-33.043 14.032zm123.953-26.417c-10.653 3.619-32.405 8.938-61.305 5.35l-13.719-32.305-55.027 23.368c-39.955-4.02-67.571-1.765-84.057.979l-3.976-45.859h222.286z"/><path id="XMLID_1331_" d="m195.202 367.144 81.356 50.768 50.77-81.358-81.359-50.769zm90.792-21.02-19.004 30.456-30.456-19.004 19.005-30.456z"/><path id="XMLID_1332_" d="m320.321 261.538c-7.846 0-15.363 6.899-15 15 .364 8.127 6.591 15 15 15 7.846 0 15.363-6.899 15-15-.363-8.127-6.59-15-15-15z"/><path id="XMLID_1333_" d="m210.706 260.384c-.364-8.127-6.591-15-15-15-7.846 0-15.363 6.899-15 15 .364 8.127 6.591 15 15 15 7.846 0 15.363-6.899 15-15z"/><path id="XMLID_1334_" d="m226.091 428.076c-7.846 0-15.363 6.899-15 15 .364 8.127 6.591 15 15 15 7.846 0 15.363-6.899 15-15-.364-8.127-6.591-15-15-15z"/></g></svg>