<svg id="Capa_1" enable-background="new 0 0 509.662 509.662" viewBox="0 0 509.662 509.662"  xmlns="http://www.w3.org/2000/svg"><g id="XMLID_391_"><path id="XMLID_405_" d="m342.688 190.752h-31.314c.097-1.286.149-2.581.149-3.884 0-25.904-19.467-46.979-43.395-46.979h-91.01c-27.165 0-27.532-45.311-27.533-45.729l.146-34.552-25.343 23.487c-25.817 23.927-34.988 43.703-37.64 57.622-20.054 4.133-35.262 23.256-35.262 46.151 0 1.303.052 2.598.149 3.884h-27.16v59.269h-24.475v247.543h367.162v-247.543h-24.475v-59.269zm-261.201-3.884c0-9.203 6.134-16.979 13.395-16.979 11.139 0 20.349-9.06 20.967-20.623.147-2.759 1.349-10.314 9.112-21.765 3.158 9.698 8.164 19.791 16.098 27.758 9.531 9.571 22 14.63 36.06 14.63h91.01c7.261 0 13.395 7.775 13.395 16.979 0 1.326-.12 2.626-.355 3.884h-199.326c-.236-1.258-.356-2.557-.356-3.884zm-27.012 33.884h258.213v29.269h-258.213zm282.687 246.813h-307.162v-187.544h307.162z"/><path id="XMLID_428_" d="m109.361 369.712c12.271 28.859 24.36 46.557 36.961 54.105 10.084 6.041 21.368 9.138 32.826 9.137 5.231 0 10.499-.646 15.704-1.951 11.642-2.919 21.989-8.904 30.173-17.275l34.102 20.429 15.416-25.735-34.101-20.428c3.52-11.165 3.914-23.112.995-34.754-4.164-16.607-14.547-30.599-29.235-39.397-12.6-7.548-33.91-9.858-65.143-7.059-21.353 1.913-39.513 5.547-40.275 5.701l-16.146 3.256 4.748 15.772c.223.744 5.588 18.47 13.975 38.199zm40.375-33.049c34.048-3.05 44.619 1.459 47.048 2.914h.001c7.813 4.681 13.337 12.124 15.552 20.959.929 3.706 1.222 7.469.912 11.168l-29.239-17.515-15.416 25.735 29.238 17.515c-3.115 2.018-6.571 3.536-10.277 4.466-8.836 2.216-18.004.858-25.817-3.823-9.343-5.597-22.659-32.389-32.251-59.01 5.89-.859 12.888-1.749 20.249-2.409z"/><path id="XMLID_444_" d="m443.662 12.097c-36.393 0-66 29.607-66 66v26.943c0 22.33 3.336 44.473 9.916 65.814 5.696 18.471 8.584 37.639 8.584 56.973v269.27h95v-269.27c0-19.331 2.888-38.5 8.584-56.973 6.58-21.337 9.916-43.48 9.916-65.814v-26.943c0-36.392-29.607-66-66-66zm36 92.944c0 19.334-2.888 38.502-8.584 56.974-6.58 21.34-9.916 43.483-9.916 65.813v239.27h-35v-239.27c0-22.333-3.336-44.477-9.916-65.813-5.696-18.474-8.584-37.643-8.584-56.974v-26.944c0-19.851 16.149-36 36-36s36 16.149 36 36z"/></g></svg>