<?xml version="1.0" encoding="iso-8859-1"?>
<!-- Generator: Adobe Illustrator 18.0.0, SVG Export Plug-In . SVG Version: 6.00 Build 0)  -->
<!DOCTYPE svg PUBLIC "-//W3C//DTD SVG 1.1//EN" "http://www.w3.org/Graphics/SVG/1.1/DTD/svg11.dtd">
<svg version="1.1" id="Capa_1" xmlns="http://www.w3.org/2000/svg" xmlns:xlink="http://www.w3.org/1999/xlink" x="0px" y="0px"
	 viewBox="0 0 390.068 390.068" style="enable-background:new 0 0 390.068 390.068;" xml:space="preserve">
<g>
	<path d="M382.568,210.046h-24.199c-1.203-29.814-25.48-53.771-55.417-54.472c-14.306-30.051-44.381-49.206-78-49.206
		c-8.76,0-17.378,1.344-25.599,3.892c-7.96-11.022-20.302-18.03-34.11-19.082c-3.103-0.234-6.221-0.163-9.259,0.215
		c-19.298,2.378-34.644,16.21-39.293,34.588c-5.057,0.079-10.105,0.576-15.026,1.522C61.85,135.15,32.768,169.66,31.69,210.046H7.5
		c-4.143,0-7.5,3.357-7.5,7.5c0,9.073,19.685,34.137,29.218,44.853c14.864,16.709,36.679,36.626,56.189,36.626h219.254
		c19.511,0,41.325-19.917,56.188-36.626c9.533-10.716,29.219-35.779,29.219-44.853C390.068,213.404,386.71,210.046,382.568,210.046z
		 M343.36,210.046h-14.631c-1.18-13.934-12.89-24.912-27.122-24.912c-14.233,0-25.943,10.979-27.123,24.912h-6.147
		c0-0.074,0.006-0.146,0.006-0.221c0-6.163-1.264-12.035-3.543-17.375c5.539-10.203,21.953-21.909,36.807-21.909
		C323.89,170.541,342.154,188.06,343.36,210.046z M313.608,210.046h-24.003c1.086-5.638,6.052-9.912,12.002-9.912
		S312.522,204.409,313.608,210.046z M224.952,121.369c26.04,0,49.504,13.907,62.083,36.098c-4.78,1.28-9.363,3.176-13.632,5.621
		c-10.302-16.838-28.484-27.128-48.451-27.128c-16.49,0-31.716,6.944-42.39,18.962c-3.228-3.638-6.773-6.992-10.573-10.041
		c1.773-1.96,3.659-3.83,5.631-5.576C190.677,127.738,207.486,121.369,224.952,121.369z M223.924,165.406
		c-2.974,0-5.94,0.295-8.809,0.876c-7.16,1.441-13.637,4.591-19.045,8.966c-1.294-2.705-2.737-5.339-4.305-7.898
		c7.889-10.33,19.983-16.39,33.187-16.39c15.219,0,29.015,8.137,36.436,21.323c-2.038,2.038-3.944,4.221-5.666,6.571
		C247.648,170.567,236.38,165.406,223.924,165.406z M253.344,209.826c0,0.074-0.005,0.146-0.006,0.221H194.51
		c-0.001-0.074-0.006-0.146-0.006-0.221c0-13.961,9.913-26.089,23.58-28.841c1.898-0.384,3.863-0.579,5.84-0.579
		C240.145,180.406,253.344,193.603,253.344,209.826z M157.826,106.279c2.058-0.256,4.172-0.305,6.281-0.144
		c8.103,0.616,15.467,4.263,20.798,10.085c-6.154,3.221-11.95,7.178-17.231,11.855c-2.934,2.6-5.705,5.428-8.264,8.403
		c-8.552-4.684-17.779-7.851-27.401-9.409C135.874,115.953,145.696,107.775,157.826,106.279z M104.496,142.234
		c4.433-0.853,8.994-1.285,13.557-1.285c30.392,0,56.979,18.804,67.174,47.124c-3.653,6.481-5.723,13.926-5.723,21.753
		c0,0.074,0.005,0.146,0.005,0.221h-4.694c-1.221-30.261-26.207-54.505-56.762-54.505c-30.555,0-55.541,24.244-56.762,54.505h-14.6
		C47.762,176.842,71.731,148.525,104.496,142.234z M118.053,185.134c-14.233,0-25.943,10.979-27.123,24.912H76.3
		c1.206-21.986,19.471-39.505,41.753-39.505c22.282,0,40.547,17.519,41.753,39.505h-14.631
		C143.995,196.113,132.285,185.134,118.053,185.134z M130.054,210.046h-24.003c1.086-5.638,6.052-9.912,12.002-9.912
		C124.003,200.134,128.968,204.409,130.054,210.046z M348.065,254.184c-17.234,18.964-33.055,29.841-43.404,29.841H85.407
		c-10.35,0-26.17-10.877-43.404-29.841c-10.05-11.06-17.874-21.857-22.492-29.138h351.047
		C365.938,232.327,358.115,243.124,348.065,254.184z"/>
</g>
<g>
</g>
<g>
</g>
<g>
</g>
<g>
</g>
<g>
</g>
<g>
</g>
<g>
</g>
<g>
</g>
<g>
</g>
<g>
</g>
<g>
</g>
<g>
</g>
<g>
</g>
<g>
</g>
<g>
</g>
</svg>
