<svg id="Layer_1" enable-background="new 0 0 512 512"  viewBox="0 0 512 512"  xmlns="http://www.w3.org/2000/svg"><path d="m497 401.667h-1.066v-17.134c0-96.863-78.804-175.667-175.667-175.667-51.26 0-97.458 22.073-129.6 57.209v-109.663c8.617-2.488 16.516-7.115 23.032-13.632l16.381-16.38h234.787c25.61 0 47.134-20.694 47.134-47.134 0-25.978-21.151-47.133-47.134-47.133h-234.787l-16.387-16.387c-10.165-10.153-23.67-15.746-38.026-15.746h-160.667c-8.284 0-15 6.716-15 15s6.716 15 15 15h17.133v34.267h-17.133c-8.284 0-15 6.716-15 15s6.716 15 15 15h17.133v34.267h-17.133c-8.284 0-15 6.716-15 15s6.716 15 15 15h17.133v180.016c-10.483 18.755-16.066 39.971-16.066 62.05v1.067h-1.067c-8.284 0-15 6.716-15 15s6.716 15 15 15h9.854l66.524 66.532c8.77 8.771 20.917 13.801 33.325 13.801h262.585c12.591 0 24.426-4.901 33.325-13.801l66.533-66.532h9.854c8.284 0 15-6.716 15-15s-6.716-15-15-15zm-306.333-366.344c.63.513 1.237 1.062 1.819 1.643l20.774 20.774c2.813 2.813 6.628 4.394 10.607 4.394h241c9.436 0 17.134 7.69 17.134 17.133 0 9.412-7.649 17.134-17.134 17.134h-241c-3.978 0-7.793 1.58-10.606 4.394l-20.774 20.773c-.583.583-1.189 1.131-1.819 1.645v-87.89zm-64.267-5.323h34.267v243.134h-17.133c-5.78 0-11.499.391-17.133 1.144v-244.278zm-64.267 0h34.267v252.104c-12.337 4.904-23.886 11.755-34.267 20.4zm-16.066 370.6c0-53.83 43.547-97.466 97.466-97.466h21.103c-5.678 10.812-10.264 22.282-13.606 34.267h-7.497c-34.897 0-63.2 28.237-63.2 63.199v1.067h-34.266zm99.37-33.2c-.548 5.639-.837 11.353-.837 17.133v17.134h-34.267v-1.067c0-18.339 14.84-33.199 33.2-33.199h1.904zm253.963 109.586c-3.233 3.233-7.535 5.014-12.112 5.014h-262.585c-4.511 0-8.925-1.827-12.112-5.014l-45.314-45.319h377.443zm-79.15-139.586c-25.979 0-47.116 21.137-47.116 47.117v17.149h-34.267v-17.134c0-44.96 36.373-81.399 81.4-81.399 44.946 0 81.4 36.383 81.4 81.399v17.134h-34.267v-17.134c0-25.978-21.148-47.132-47.15-47.132zm17.15 47.133v17.134h-34.267v-17.149c0-9.438 7.679-17.117 17.133-17.117 9.436-.001 17.134 7.69 17.134 17.132zm128.534 17.134h-34.267v-17.134c0-61.505-49.782-111.399-111.4-111.399-61.519 0-111.4 49.776-111.4 111.399v17.134h-34.267v-17.134c0-80.321 65.346-145.667 145.667-145.667s145.667 65.346 145.667 145.667z"/></svg>