<?xml version="1.0" encoding="iso-8859-1"?>
<!-- Generator: Adobe Illustrator 19.0.0, SVG Export Plug-In . SVG Version: 6.00 Build 0)  -->
<svg version="1.1" id="Layer_1" xmlns="http://www.w3.org/2000/svg" xmlns:xlink="http://www.w3.org/1999/xlink" x="0px" y="0px"
	 viewBox="0 0 512 512" style="enable-background:new 0 0 512 512;" xml:space="preserve">
<g>
	<g>
		<path d="M449.975,220.627c-20.794-27.725-48.864-42.994-79.036-42.994h-15.673v-36.571c0-30.172-15.269-58.242-42.994-79.036
			c-22.604-16.952-51.416-27.371-82.393-30.007V0h-31.347v32.018c-30.977,2.636-59.789,13.055-82.393,30.008
			C93.28,79.169,78.89,101.254,74.54,125.388H31.347v21.53l41.796,61.649V512h282.122v-52.245h15.673
			c30.172,0,58.242-15.269,79.036-42.994c19.783-26.378,30.678-61.206,30.678-98.067
			C480.653,281.833,469.758,247.005,449.975,220.627z M134.945,87.103c20.988-15.74,49.135-24.409,79.259-24.409
			s58.272,8.668,79.259,24.409c14.444,10.832,24.114,24.061,28.221,38.285H106.725C110.831,111.165,120.503,97.936,134.945,87.103z
			 M198.531,156.735v151.51H104.49V198.943l-28.616-42.209H198.531z M323.918,480.653H104.49V339.592h94.041v78.367h-31.347v31.347
			h94.041v-31.347h-31.347v-78.367h94.041V480.653z M323.918,308.245h-94.041v-151.51h94.041V308.245z M424.897,397.953
			c-14.73,19.639-33.892,30.456-53.959,30.456h-15.673V208.98h15.673c20.066,0,39.229,10.817,53.959,30.456
			c15.74,20.988,24.409,49.135,24.409,79.259C449.306,348.817,440.638,376.965,424.897,397.953z"/>
	</g>
</g>
<g>
</g>
<g>
</g>
<g>
</g>
<g>
</g>
<g>
</g>
<g>
</g>
<g>
</g>
<g>
</g>
<g>
</g>
<g>
</g>
<g>
</g>
<g>
</g>
<g>
</g>
<g>
</g>
<g>
</g>
</svg>
