<svg id="Capa_1" enable-background="new 0 0 512 512"  viewBox="0 0 512 512"  xmlns="http://www.w3.org/2000/svg"><g><path d="m462.521 294.151c-9.291-11.898-23.277-18.723-38.373-18.723h-45.145v-34.428h-339.856v102.247c0 57.441 28.855 108.261 72.823 138.753h-72.704v30h339.618v-30h-72.704c15.375-10.662 28.9-23.808 39.99-38.857h32.929c38.55 0 72.003-26.12 81.353-63.518l10.927-43.705c3.66-14.646.432-29.869-8.858-41.769zm-252.271 187.849h-2.35c-76.509 0-138.753-62.244-138.753-138.753v-72.247h279.856v72.247c0 76.509-62.244 138.753-138.753 138.753zm232.025-153.356-10.927 43.705c-6.005 24.019-27.49 40.794-52.249 40.794h-15.265c9.736-21.309 15.169-44.979 15.169-69.896v-37.818h45.145c5.794 0 11.161 2.619 14.727 7.186 3.566 4.566 4.804 10.408 3.4 16.029z"/><path d="m209.247 118.286c-27.256 0-49.43 22.174-49.43 49.43v34.427h30v-34.427c0-10.714 8.716-19.43 19.43-19.43h137.709c65.226 0 118.29-53.064 118.29-118.29v-29.996h-30v29.996c0 48.684-39.606 88.29-88.29 88.29z"/><path d="m120.96 172.147c0-48.684 39.606-88.29 88.29-88.29h137.709c27.256 0 49.43-22.175 49.43-49.431v-34.426h-30v34.427c0 10.714-8.716 19.431-19.43 19.431h-137.709c-65.226 0-118.29 53.064-118.29 118.29v29.995h30z"/></g></svg>