<svg stroke="black" stroke-width="5" viewBox="-119 0 512 512.00008" xmlns="http://www.w3.org/2000/svg"><path d="m8.535156 230.398438h9.273438l24.859375 273.835937c.398437 4.410156 4.105469 7.78125 8.535156 7.765625h170.664063c4.429687.019531 8.136718-3.355469 8.535156-7.765625l24.855468-273.835937h9.277344c4.710938 0 8.535156-3.820313 8.535156-8.53125v-34.132813c0-4.714844-3.824218-8.535156-8.535156-8.535156h-.394531c-4.058594-57.355469-45.714844-105.042969-102.007813-116.769531v-53.894532c0-4.714844-3.820312-8.535156-8.53125-8.535156h-34.132812c-4.714844 0-8.535156 3.820312-8.535156 8.535156v53.894532c-56.292969 11.726562-97.949219 59.414062-102.007813 116.769531h-.390625c-4.714844 0-8.535156 3.820312-8.535156 8.535156v34.132813c0 4.710937 3.820312 8.53125 8.535156 8.53125zm205.542969 264.535156h-155.085937l-1.554688-17.066406h138.832031v-17.066407h-140.382812l-4.214844-46.398437 20.753906 9.234375c29.320313 13.132812 63.78125 5.542969 84.871094-18.695313 14.875-17.066406 38.558594-23.5 60.023437-16.308594l6.230469 2.082032zm11.09375-121.6875-2.417969-.800782c-27.988281-9.382812-58.871094-1-78.273437 21.246094-16.167969 18.621094-42.625 24.449219-65.117188 14.347656l-29.457031-13.089843-14.917969-164.550781h203.179688zm30.828125-159.914063h-238.933594v-17.066406h238.933594zm-8.925781-34.132812h-84.941407v-99.421875c46.808594 11.328125 81.0625 51.421875 84.941407 99.421875zm-119.074219-162.132813h17.066406v162.132813h-17.066406zm-17.066406 62.710938v99.421875h-84.9375c3.882812-48 38.132812-88.089844 84.9375-99.421875zm0 0"/><path d="m66.628906 357.972656 36.207032 36.199219c3.332031 3.332031 8.734374 3.332031 12.066406 0l36.199218-36.199219c3.332032-3.332031 3.332032-8.734375 0-12.066406l-36.199218-36.207031c-3.332032-3.332031-8.734375-3.332031-12.066406 0l-36.207032 36.207031c-3.332031 3.332031-3.332031 8.734375 0 12.066406zm42.242188-30.171875 24.132812 24.140625-24.132812 24.132813-24.140625-24.132813zm0 0"/><path d="m166.699219 334.4375c3.332031 3.332031 8.734375 3.332031 12.066406 0l36.207031-36.199219c3.332032-3.332031 3.332032-8.730469 0-12.066406l-36.207031-36.203125c-3.382813-3.203125-8.679687-3.203125-12.066406 0l-36.199219 36.203125c-3.328125 3.332031-3.328125 8.734375 0 12.066406zm6.035156-66.371094 24.140625 24.140625-24.140625 24.132813-24.132813-24.132813zm0 0"/></svg>