<svg id="Capa_1" enable-background="new 0 0 512 512" viewBox="0 0 512 512" xmlns="http://www.w3.org/2000/svg"><g><path d="m508.738 262.662c-2.845-3.578-7.167-5.662-11.738-5.662h-12.38c.246-2.31.38-4.643.38-7 0-8.418-1.626-16.649-4.768-24.349 15.71-14.071 24.768-34.037 24.768-55.651 0-36.663-26.445-67.267-61.261-73.739-6.472-34.816-37.076-61.261-73.739-61.261s-67.267 26.445-73.739 61.261c-30.404 5.653-54.422 29.71-60.02 60.134-5.28-.914-10.705-1.395-16.241-1.395-26.432 0-51.111 10.803-68.869 29.562l-83.169-83.169c-5.857-5.857-15.355-5.857-21.213 0-42.103 42.104-49.77 105.691-22.203 155.607h-9.546c-4.571 0-8.893 2.084-11.739 5.662-2.846 3.577-3.905 8.257-2.877 12.711l13.901 60.237c9.906 42.928 44.51 74.239 86.715 80.301v46.089c0 8.284 6.716 15 15 15h280c8.284 0 15-6.716 15-15v-46.089c42.205-6.062 76.809-37.372 86.715-80.301l13.901-60.237c1.028-4.454-.031-9.134-2.878-12.711zm-198.738-137.662c8.284 0 15-6.716 15-15 0-24.813 20.187-45 45-45s45 20.187 45 45c0 8.284 6.716 15 15 15 24.813 0 45 20.187 45 45 0 15.87-8.167 30.269-21.848 38.517-3.562 2.147-6.071 5.677-6.931 9.745-.86 4.069.008 8.312 2.396 11.716 4.176 5.95 6.383 12.874 6.383 20.022 0 2.381-.247 4.717-.71 7h-69.29v-38.973l53.32-35.547c6.894-4.595 8.756-13.908 4.16-20.801-4.595-6.893-13.909-8.755-20.801-4.16l-36.679 24.454v-61.973c0-8.284-6.716-15-15-15s-15 6.716-15 15v61.973l-36.68-24.453c-6.893-4.595-16.206-2.733-20.801 4.16-4.596 6.893-2.733 16.206 4.16 20.801l53.321 35.546v38.973h-40.266c.173-2.329.266-4.663.266-7 0-36.05-20.185-67.473-49.846-83.565 1.825-23.151 21.234-41.435 44.846-41.435zm-90 60c35.841 0 65 29.159 65 65 0 2.339-.131 4.675-.384 7h-61.048l-51.206-51.206c12.192-13.183 29.299-20.794 47.638-20.794zm-95.701 45.157v26.843h-26.842zm-66.147 23.722c-10.077-13.578-16.29-29.034-18.677-44.934h63.611zm96.147-23.722 26.844 26.843h-26.843v-26.843zm-96.165-96.165 44.952 44.952h-63.606c2.399-15.943 8.615-31.417 18.654-44.952zm322.866 313.008h-250v-30h250zm87.482-118.136c-7.898 34.23-37.704 58.136-72.482 58.136h-280c-34.778 0-64.584-23.906-72.483-58.136l-9.661-41.864h444.289z"/></g></svg>