<svg id="Capa_1" enable-background="new 0 0 512 512" viewBox="0 0 512 512"  xmlns="http://www.w3.org/2000/svg"><g><path d="m497 241.002h-16c0-34.959-20.462-66.499-51.25-81.237 1.827-8.58 2.182-16.914 1.115-24.81l30.391 10.13c7.858 2.619 16.353-1.628 18.974-9.487 2.619-7.859-1.628-16.354-9.487-18.974l-40.615-13.539 25.265-25.265c5.858-5.857 5.858-15.355 0-21.213-5.857-5.858-15.355-5.858-21.213 0l-25.265 25.265-13.538-40.615c-2.62-7.86-11.116-12.106-18.974-9.487-7.859 2.62-12.106 11.115-9.487 18.974l10.13 30.391c-17.71-2.393-35.15 2.606-50.929 10.699-12.216-35.467-46.028-60.832-85.117-60.832-35.828 0-67.353 21.039-81.783 52.426-13.776-14.025-32.806-22.426-53.217-22.426-41.355 0-75 33.645-75 75 0 16.3 5.443 32.071 15.27 45-12.798 16.839-18.149 38.411-13.752 60h-17.518c-8.284 0-15 6.716-15 15 0 78.335 47.412 149.556 120 179.828v30.172c0 8.284 6.716 15 15 15h242c8.417 0 15.205-6.939 14.995-15.371l-.738-29.903c72.673-30.344 120.743-101.264 120.743-179.726 0-8.284-6.716-15-15-15zm-46 0h-74.008c15.855-15.318 31.601-33.438 42.085-53.033 19.268 10.244 31.923 30.58 31.923 53.033zm-59.249-120.756c.002.002.003.003.005.005 26.273 26.279-5.51 69.145-31.822 95.456l-10.607-10.607c-5.857-5.857-15.355-5.858-21.213 0s-5.858 15.355 0 21.213l9.606 9.606c-2.048 1.706-4.12 3.402-6.228 5.081h-58.954c-7.826-7.677-14.458-16.57-19.55-26.239 7.85-9.169 13.34-20.068 16.058-31.766 14.236-18.192 31.721-36.996 49.71-50.895l9.359 9.359c5.857 5.858 15.355 5.859 21.213 0 5.858-5.858 5.858-15.355 0-21.213l-4.291-4.291c19.159-8.394 35.271-7.15 46.714 4.291zm-150.751-59.244c28.692 0 53.125 20.486 58.763 47.894-11.98 9.303-23.199 20.035-33.436 31.054-11.575-31.145-42.867-51.938-77.594-48.593 10.312-18.286 29.881-30.355 52.267-30.355zm-164.436 131.294c6.837-5.976 6.83-16.618 0-22.587-10.037-8.774-15.564-20.744-15.564-33.707 0-24.813 20.187-45 45-45 18.946 0 35.927 12.15 42.255 30.233 3.248 9.282 14.419 12.979 22.565 7.469 7.445-5.039 16.152-7.702 25.18-7.702 24.813 0 45 20.187 45 45 0 13.174-5.749 25.646-15.773 34.219-4.926 4.212-6.589 11.112-4.123 17.106 3.403 8.273 7.659 16.216 12.655 23.675h-16.545l-42.426-42.426v-36.213c0-8.284-6.716-15-15-15s-15 6.716-15 15v27.426h-27.428c-8.284 0-15 6.716-15 15s6.716 15 15 15h36.214l21.213 21.213h-111.208c-5.877-16.664-1.829-35.757 12.985-48.706zm404.74 78.706c-.954 10.248-2.891 20.28-5.704 30h-439.288c-2.775-9.717-4.684-19.749-5.625-30zm-110.31 140.397c-6.119 2.167-10.15 8.022-9.989 14.511l.62 25.092h-211.625v-25.463c0-6.354-4.004-12.019-9.994-14.14-40.618-14.38-72.989-43.691-91.832-80.397h415.411c-19.024 36.606-51.658 65.905-92.591 80.397z"/></g></svg>