<svg id="Capa_1" enable-background="new 0 0 508.278 508.278"  viewBox="0 0 508.278 508.278"  xmlns="http://www.w3.org/2000/svg"><g><path d="m349.291 30h68.514v-30h-68.514c-24.694 0-45.32 17.707-49.873 41.09-12.699-20.173-35.153-33.616-60.7-33.616-37.507 0-68.359 28.96-71.419 65.69-30.091 6.31-53.303 31.543-56.562 62.634h-20.264l44.819 372.481h206.85l44.819-372.481h-20.263c-2.558-24.398-17.409-45.178-38.225-56.049v-28.932c0-11.478 9.339-20.817 20.818-20.817zm-110.574 7.473c21.005 0 38.422 15.618 41.271 35.849-16.663 3.668-31.162 13.144-41.271 26.196-10.109-13.052-24.609-22.528-41.271-26.196 2.849-20.231 20.267-35.849 41.271-35.849zm114.418 128.324-5.386 44.762c-8.767-4.34-18.294-6.616-28.16-6.616-.001 0 0 0 0 0-19.793 0-38.223 9.154-51.887 25.77l-.353.43c-7.864 9.563-18.063 14.829-28.719 14.829s-20.855-5.266-28.711-14.82l-.356-.434c-13.668-16.621-32.096-25.774-51.89-25.774-.001 0 0 0 0 0-9.805 0-19.273 2.253-27.996 6.54l-5.377-44.686h228.835zm-171.107-64.162c20.417 0 37.44 14.757 40.995 34.162h-81.99c3.555-19.405 20.579-34.162 40.995-34.162zm133.508 376.643h-153.637l-28.215-234.49c7.032-6.39 15.36-9.845 23.988-9.845 10.656 0 20.855 5.266 28.722 14.833l.346.421c13.668 16.621 32.096 25.774 51.89 25.774 19.793 0 38.223-9.154 51.911-25.798l.329-.401c7.864-9.563 18.063-14.829 28.719-14.829 8.692 0 17.079 3.506 24.145 9.99zm-61.125-342.481c3.555-19.405 20.579-34.162 40.995-34.162s37.44 14.757 40.995 34.162z"/></g></svg>