<svg id="Capa_1" enable-background="new 0 0 512 512"  viewBox="0 0 512 512"  xmlns="http://www.w3.org/2000/svg"><g><path d="m496 392h-480c-8.284 0-15 6.716-15 15v30c0 8.284 6.716 15 15 15h480c8.284 0 15-6.716 15-15v-30c0-8.284-6.716-15-15-15z"/><path d="m391 497c0 8.284 6.716 15 15 15h40c8.284 0 15-6.716 15-15v-15h-70z"/><path d="m51 497c0 8.284 6.716 15 15 15h40c8.284 0 15-6.716 15-15v-15h-70z"/><path d="m71.342 311.177c6.249 18.446 15.729 35.673 27.976 50.823h126.723c-9.438-12.544-15.041-28.129-15.041-45v-60c0-24.813 20.187-45 45-45h86.62c-7.108-24.182-19.751-46.571-37.229-65.394 0-.001 0-.001-.001-.001l-8.92-9.605h-180.94l-8.919 9.605c-4.542 4.891-8.746 10.039-12.623 15.395h-47.988c-24.813 0-45 20.187-45 45v23.168c0 41.221 30.643 75.404 70.342 81.009zm-40.342-104.177c0-8.271 6.729-15 15-15h30.758c-11.029 24.958-15.838 52.547-13.526 80.218.173 2.065.384 4.123.634 6.173-19.222-7.588-32.866-26.336-32.866-48.223z"/><path d="m241 257v60c0 24.853 20.147 45 45 45h30c24.853 0 45-20.147 45-45v-75h-105c-8.284 0-15 6.716-15 15z"/><path d="m496 242h-105v75c0 24.853 20.147 45 45 45h30c24.853 0 45-20.147 45-45v-60c0-8.284-6.716-15-15-15z"/><path d="m406 90c8.284 0 15-6.716 15-15 0-8.271 6.729-15 15-15h10c24.813 0 45-20.187 45-45 0-8.284-6.716-15-15-15s-15 6.716-15 15c0 8.271-6.729 15-15 15h-10c-24.813 0-45 20.187-45 45 0 8.284 6.716 15 15 15z"/><g><path d="m420.974 122h-25.857c-3.126 0-6.174.977-8.719 2.794l-38.593 27.567c11.943 18.314 20.664 38.467 25.86 59.639h11.645l47.824-66.218c7.164-9.92.076-23.782-12.16-23.782z"/></g><path d="m221 63.34v-16.34c0-8.284-6.716-15-15-15s-15 6.716-15 15v16.34c-25.509 4.585-47.531 20.684-59.625 43.66h149.251c-12.095-22.976-34.117-39.075-59.626-43.66z"/></g></svg>